<svg width="12" height="12" viewBox="0 0 12 12" fill="none" xmlns="http://www.w3.org/2000/svg">
<path d="M6 8.80367L0.766818 3.14533C0.724645 3.09875 0.674576 3.06192 0.619509 3.03697C0.564442 3.01203 0.505469 2.99947 0.446005 3.00002C0.38654 3.00057 0.327763 3.01421 0.273077 3.04017C0.21839 3.06613 0.168879 3.10388 0.127408 3.15123C0.0859375 3.19859 0.053331 3.25462 0.0314755 3.31607C0.00962003 3.37752 -0.00105048 3.44318 8.14938e-05 3.50925C0.00121347 3.57531 0.0141255 3.64047 0.0380702 3.70096C0.062015 3.76144 0.096517 3.81605 0.13958 3.86162L5.68638 9.85845C5.77034 9.94921 5.88286 10 6 10C6.11714 10 6.22966 9.94921 6.31362 9.85845L11.8604 3.86162C11.9035 3.81605 11.938 3.76144 11.9619 3.70096C11.9859 3.64047 11.9988 3.57531 11.9999 3.50925C12.0011 3.44318 11.9904 3.37752 11.9685 3.31607C11.9467 3.25462 11.9141 3.19859 11.8726 3.15123C11.8311 3.10388 11.7816 3.06613 11.7269 3.04017C11.6722 3.01421 11.6135 3.00057 11.554 3.00002C11.4945 2.99947 11.4356 3.01203 11.3805 3.03697C11.3254 3.06192 11.2754 3.09875 11.2332 3.14533L6 8.80367Z" fill="#020202"/>
</svg>
