<svg width="20" height="20" viewBox="0 0 20 20" fill="none" xmlns="http://www.w3.org/2000/svg">
<path d="M18.2672 13.9584C17.9922 16.175 16.1755 17.9917 13.9589 18.2667C12.6172 18.4334 11.3672 18.0667 10.3922 17.35C9.83387 16.9417 9.9672 16.075 10.6339 15.875C13.1422 15.1167 15.1172 13.1334 15.8839 10.625C16.0839 9.96668 16.9505 9.83335 17.3589 10.3834C18.0672 11.3667 18.4339 12.6167 18.2672 13.9584Z" fill="white" fill-opacity="0.6"/>
<path d="M8.3263 1.66669C4.6513 1.66669 1.66797 4.65002 1.66797 8.32502C1.66797 12 4.6513 14.9834 8.3263 14.9834C12.0013 14.9834 14.9846 12 14.9846 8.32502C14.9763 4.65002 12.0013 1.66669 8.3263 1.66669ZM7.54297 7.39169L9.5513 8.09169C10.2763 8.35002 10.6263 8.85835 10.6263 9.64169C10.6263 10.5417 9.90964 11.2834 9.03464 11.2834H8.95964V11.325C8.95964 11.6667 8.6763 11.95 8.33464 11.95C7.99297 11.95 7.70964 11.6667 7.70964 11.325V11.275C6.78464 11.2334 6.04297 10.4584 6.04297 9.49169C6.04297 9.15002 6.3263 8.86669 6.66797 8.86669C7.00964 8.86669 7.29297 9.15002 7.29297 9.49169C7.29297 9.79169 7.50964 10.0334 7.7763 10.0334H9.0263C9.21797 10.0334 9.36797 9.85835 9.36797 9.64169C9.36797 9.35002 9.31797 9.33335 9.1263 9.26669L7.11797 8.56669C6.4013 8.31669 6.04297 7.80835 6.04297 7.01669C6.04297 6.11669 6.75964 5.37502 7.63464 5.37502H7.70964V5.34169C7.70964 5.00002 7.99297 4.71669 8.33464 4.71669C8.6763 4.71669 8.95964 5.00002 8.95964 5.34169V5.39169C9.88464 5.43335 10.6263 6.20835 10.6263 7.17502C10.6263 7.51669 10.343 7.80002 10.0013 7.80002C9.65964 7.80002 9.3763 7.51669 9.3763 7.17502C9.3763 6.87502 9.15964 6.63335 8.89297 6.63335H7.64297C7.4513 6.63335 7.3013 6.80835 7.3013 7.02502C7.29297 7.30835 7.34297 7.32502 7.54297 7.39169Z" fill="white" fill-opacity="0.6"/>
</svg>
