<svg width="20" height="20" viewBox="0 0 20 20" fill="none" xmlns="http://www.w3.org/2000/svg">
<path d="M14.0166 1.59167H5.98327C4.2166 1.59167 2.7666 3.04167 2.7666 4.80834V16.55C2.7666 18.05 3.8416 18.6833 5.15827 17.9583L9.22493 15.7C9.65827 15.4583 10.3583 15.4583 10.7833 15.7L14.8499 17.9583C16.1666 18.6917 17.2416 18.0583 17.2416 16.55V4.80834C17.2333 3.04167 15.7916 1.59167 14.0166 1.59167ZM13.0166 7.52501L9.68327 10.8583C9.55827 10.9833 9.39994 11.0417 9.2416 11.0417C9.08327 11.0417 8.92494 10.9833 8.79994 10.8583L7.54994 9.60834C7.30827 9.36667 7.30827 8.96667 7.54994 8.72501C7.7916 8.48334 8.1916 8.48334 8.43327 8.72501L9.2416 9.53334L12.1333 6.64167C12.3749 6.40001 12.7749 6.40001 13.0166 6.64167C13.2583 6.88334 13.2583 7.28334 13.0166 7.52501Z" fill="#381D00"/>
</svg>
