<svg width="20" height="20" viewBox="0 0 20 20" fill="none" xmlns="http://www.w3.org/2000/svg">
<path d="M17.4582 3.44166C17.2165 3.09166 16.9082 2.78332 16.5582 2.54166C15.7665 1.96666 14.7332 1.66666 13.4915 1.66666H6.50817C6.3415 1.66666 6.17484 1.67499 6.0165 1.69166C3.28317 1.86666 1.6665 3.64166 1.6665 6.50832V13.4917C1.6665 14.7333 1.9665 15.7667 2.5415 16.5583C2.78317 16.9083 3.0915 17.2167 3.4415 17.4583C4.12484 17.9583 4.9915 18.25 6.0165 18.3167C6.17484 18.325 6.3415 18.3333 6.50817 18.3333H13.4915C16.5248 18.3333 18.3332 16.525 18.3332 13.4917V6.50832C18.3332 5.26666 18.0332 4.23332 17.4582 3.44166ZM9.4915 13.2333H7.09984C6.75817 13.2333 6.47484 12.95 6.47484 12.6083C6.47484 12.2667 6.75817 11.9833 7.09984 11.9833H7.93317V6.59166H5.7915C5.69984 6.59166 5.62484 6.66666 5.62484 6.75832V7.40832C5.62484 7.74999 5.3415 8.02499 4.99984 8.02499C4.65817 8.02499 4.37484 7.74999 4.37484 7.39999V6.74999C4.37484 5.96666 5.00817 5.33332 5.7915 5.33332H11.3248C12.1082 5.33332 12.7415 5.96666 12.7415 6.74999V7.39999C12.7415 7.74166 12.4582 8.02499 12.1165 8.02499C11.7748 8.02499 11.4915 7.74166 11.4915 7.39999V6.74999C11.4915 6.65832 11.4165 6.58332 11.3248 6.58332H9.18317V11.9833H9.4915C9.83317 11.9833 10.1165 12.2667 10.1165 12.6083C10.1165 12.95 9.83317 13.2333 9.4915 13.2333ZM15.6248 10.1917C15.6248 10.5333 15.3415 10.8167 14.9998 10.8167C14.6582 10.8167 14.3748 10.5333 14.3748 10.1917V9.91666H13.0832V13.4167H13.3748C13.7165 13.4167 13.9998 13.7 13.9998 14.0417C13.9998 14.3833 13.7165 14.6667 13.3748 14.6667H11.5415C11.1998 14.6667 10.9165 14.3833 10.9165 14.0417C10.9165 13.7 11.1998 13.4167 11.5415 13.4167H11.8332V9.91666H11.4332C11.0915 9.91666 10.8082 9.63332 10.8082 9.29166C10.8082 8.94999 11.0915 8.66666 11.4332 8.66666H14.4332C15.0915 8.66666 15.6248 9.19999 15.6248 9.85832V10.1917Z" fill="#9E9B97"/>
</svg>
