<svg width="16" height="16" viewBox="0 0 16 16" fill="none" xmlns="http://www.w3.org/2000/svg">
<path d="M12.001 1.5H14.001C14.0914 1.50018 14.167 1.57658 14.167 1.66699V14.333C14.167 14.4234 14.0914 14.4998 14.001 14.5H12.001C11.9105 14.5 11.834 14.4235 11.834 14.333V1.66699C11.834 1.57647 11.9105 1.5 12.001 1.5ZM1.99219 1.7666C2.00953 1.76771 2.03309 1.77332 2.0625 1.7959L2.07324 1.80469L2.08496 1.8125L10.9189 7.84668L10.9238 7.84961C10.9395 7.86008 10.9514 7.87125 10.9609 7.88184L11.0518 7.9834L10.9609 8.08496C10.9514 8.09554 10.9395 8.10673 10.9238 8.11719L10.918 8.12109L2.08398 14.1875L2.07324 14.1953L2.0625 14.2041C2.03309 14.2267 2.00953 14.2323 1.99219 14.2334C1.97246 14.2346 1.94816 14.2302 1.92285 14.2168C1.87086 14.1892 1.83398 14.1356 1.83398 14.0664V1.93359C1.83398 1.86439 1.87086 1.81079 1.92285 1.7832C1.94816 1.76985 1.97246 1.76537 1.99219 1.7666Z" fill="white" stroke="white"/>
</svg>
