<svg width="16" height="16" viewBox="0 0 16 16" fill="none" xmlns="http://www.w3.org/2000/svg">
<g clip-path="url(#clip0_310_5540)">
<path fill-rule="evenodd" clip-rule="evenodd" d="M10.8626 0.861947C11.1229 0.6016 11.5451 0.6016 11.8054 0.861947L13.8054 2.86195C14.0657 3.1223 14.0657 3.54441 13.8054 3.80476L11.8054 5.80476C11.5451 6.06511 11.1229 6.06511 10.8626 5.80476C10.6023 5.54441 10.6023 5.1223 10.8626 4.86195L11.7245 4.00002H5.66732C3.46884 4.00002 1.66732 5.80154 1.66732 8.00002C1.66732 8.36822 1.36884 8.66669 1.00065 8.66669C0.632461 8.66669 0.333984 8.36822 0.333984 8.00002C0.333984 5.06517 2.73246 2.66669 5.66732 2.66669H11.7245L10.8626 1.80476C10.6023 1.54441 10.6023 1.1223 10.8626 0.861947ZM15.6673 8.00002C15.6673 7.63182 15.3688 7.33335 15.0007 7.33335C14.6325 7.33335 14.334 7.63182 14.334 8.00002C14.334 10.1985 12.5325 12 10.334 12H4.27679L5.13872 11.1381C5.39907 10.8778 5.39907 10.4556 5.13872 10.1953C4.87837 9.93495 4.45626 9.93495 4.19591 10.1953L2.19591 12.1953C1.93556 12.4556 1.93556 12.8778 2.19591 13.1381L4.19591 15.1381C4.45626 15.3984 4.87837 15.3984 5.13872 15.1381C5.39907 14.8778 5.39907 14.4556 5.13872 14.1953L4.27679 13.3334H10.334C13.2689 13.3334 15.6673 10.9349 15.6673 8.00002Z" fill="white" fill-opacity="0.2"/>
</g>
<defs>
<clipPath id="clip0_310_5540">
<rect width="16" height="16" fill="white"/>
</clipPath>
</defs>
</svg>
