<svg width="16" height="16" viewBox="0 0 16 16" fill="none" xmlns="http://www.w3.org/2000/svg">
<path d="M2.00098 1.5H4.00098C4.09136 1.50018 4.16699 1.57658 4.16699 1.66699V14.333C4.16699 14.4234 4.09136 14.4998 4.00098 14.5H2.00098C1.91045 14.5 1.83398 14.4235 1.83398 14.333V1.66699C1.83398 1.57647 1.91045 1.5 2.00098 1.5ZM14.0098 1.7666C14.0295 1.76547 14.0539 1.76982 14.0791 1.7832C14.131 1.81082 14.167 1.86447 14.167 1.93359V14.0664C14.167 14.1355 14.131 14.1892 14.0791 14.2168C14.0539 14.2302 14.0295 14.2345 14.0098 14.2334C13.9924 14.2323 13.9681 14.2269 13.9385 14.2041L13.9277 14.1953L13.917 14.1875L5.08398 8.12109L5.07812 8.11719L5.04004 8.08496L4.94824 7.9834L5.04004 7.88184C5.04977 7.871 5.06235 7.86012 5.07812 7.84961L5.08301 7.84668L13.916 1.8125L13.9277 1.80469L13.9385 1.7959C13.9681 1.77313 13.9924 1.76768 14.0098 1.7666Z" fill="white" stroke="white"/>
</svg>
