<svg width="24" height="24" viewBox="0 0 24 24" fill="none" xmlns="http://www.w3.org/2000/svg">
<path d="M13.2041 2.59668C13.356 2.48533 13.5577 2.4688 13.7256 2.55371C13.8937 2.63887 14 2.81156 14 3V21C14 21.1884 13.8936 21.3612 13.7256 21.4463C13.5576 21.5312 13.3558 21.5146 13.2041 21.4033L5.91992 16.0615L5.8125 15.9824L5.67969 15.9678L3.25195 15.6982V15.6973H3.24512C1.92901 15.568 1.00009 14.4417 1 13.2002V10.7998C1.0001 9.49154 1.99524 8.43034 3.24512 8.30273H3.25L5.67969 8.03223L5.8125 8.01758L5.91992 7.93848L13.2041 2.59668ZM12.2041 4.57031L6.2959 8.90332C6.22543 8.955 6.14247 8.98736 6.05566 8.99707L3.35547 9.29688H3.35449L3.34375 9.29785C2.5977 9.37552 2.0001 10.0133 2 10.7998V13.2002C2.0001 13.9601 2.57089 14.6256 3.34375 14.7012V14.7021H3.35547V14.7031L6.05566 15.0029C6.14236 15.0126 6.22534 15.0449 6.2959 15.0967L12.2041 19.4297L13 20.0137V3.98633L12.2041 4.57031ZM19.4121 4.53223C19.6153 4.34546 19.9313 4.35825 20.1182 4.56152C21.9004 6.50097 23 9.12092 23 12C23 14.8791 21.9004 17.499 20.1182 19.4385C19.9313 19.6418 19.6153 19.6546 19.4121 19.4678C19.2341 19.3043 19.2014 19.042 19.3213 18.8428L19.3818 18.7617C20.9996 17.0012 22 14.6209 22 12C22 9.37911 20.9996 6.99885 19.3818 5.23828C19.195 5.03494 19.2088 4.71905 19.4121 4.53223ZM16.7334 7.56348C16.947 7.38866 17.2625 7.41999 17.4375 7.63379C18.4063 8.81818 19 10.3287 19 12C19 13.5633 18.4799 15.0331 17.6143 16.1895L17.4365 16.417C17.2615 16.6303 16.9469 16.6619 16.7334 16.4873C16.5196 16.3123 16.4883 15.9968 16.6631 15.7832C17.4913 14.7708 18 13.4323 18 12C18 10.5717 17.4941 9.28221 16.6631 8.2666C16.5101 8.07956 16.5152 7.81513 16.6621 7.63477L16.7334 7.56348Z" fill="white" stroke="white"/>
</svg>
