<svg width="16" height="16" viewBox="0 0 16 16" fill="none" xmlns="http://www.w3.org/2000/svg">
<path d="M12.333 9.80011C12.3629 9.80011 12.4037 9.81126 12.4463 9.85382L14.4336 11.8411V12.1253L12.4463 14.1126C12.4037 14.1552 12.3629 14.1663 12.333 14.1663C12.3107 14.1663 12.2606 14.1592 12.1758 14.098C12.1438 14.0606 12.1339 14.0269 12.1338 14.0003C12.1338 13.9705 12.1442 13.9295 12.1865 13.887L13.9072 12.1663H10.7998C9.94428 12.1663 9.15481 11.7866 8.6084 11.1175L8.82031 10.7952C9.29396 11.4454 10.036 11.8 10.833 11.8001H13.9404L13.0869 10.9466L12.2207 10.0794C12.1784 10.0371 12.1671 9.99694 12.167 9.9671C12.167 9.93722 12.1781 9.89638 12.2207 9.85382C12.2631 9.8115 12.3032 9.80019 12.333 9.80011ZM12.333 1.83331C12.3629 1.83331 12.4037 1.84447 12.4463 1.88702L14.4463 3.88702L14.4668 3.90656V3.94073L14.5 3.97394V4.00714L14.5186 4.0257C14.5146 4.03432 14.5096 4.04272 14.5059 4.05206L14.4463 4.11261L12.4463 6.11261C12.4037 6.15517 12.3629 6.16632 12.333 6.16632C12.3107 6.16626 12.2606 6.15924 12.1758 6.09796C12.1438 6.06062 12.1339 6.02692 12.1338 6.00031C12.1338 5.97048 12.1442 5.92949 12.1865 5.88702L13.9072 4.16632H10.7998C9.96758 4.16639 9.13581 4.61684 8.70703 5.33917L5.27637 10.8333C4.72861 11.6643 3.84981 12.1663 2.86621 12.1663H1.66699C1.57658 12.1663 1.50018 12.0907 1.5 12.0003C1.5 11.9098 1.57647 11.8333 1.66699 11.8333H2.86621C3.72847 11.8333 4.52701 11.4188 4.99023 10.6634L4.99121 10.6644L8.41797 5.17413C8.96531 4.33871 9.84654 3.83342 10.833 3.83331H13.9404L13.0869 2.9798L12.2207 2.11261C12.1783 2.07021 12.1671 2.03016 12.167 2.00031C12.167 1.97042 12.1781 1.92958 12.2207 1.88702C12.263 1.84476 12.3032 1.83339 12.333 1.83331ZM1.66699 3.80011H2.86621C3.72369 3.80011 4.51494 4.18188 5.06152 4.85382L4.87012 5.15851C4.39601 4.51649 3.65804 4.16632 2.86621 4.16632H1.66699C1.59239 4.16632 1.5002 4.10675 1.5 3.9671C1.5 3.87658 1.57647 3.80011 1.66699 3.80011ZM14.4375 3.72394C14.4365 3.71559 14.4351 3.70759 14.4346 3.7005C14.4341 3.69434 14.4338 3.68848 14.4336 3.68292C14.4335 3.68009 14.4336 3.67684 14.4336 3.67413L14.4375 3.72394Z" fill="white" stroke="white"/>
</svg>
